<svg width="62" height="96" viewBox="0 0 62 96" fill="none" xmlns="http://www.w3.org/2000/svg">
<g id="IPL_Logo_1">
<path id="Vector" fill-rule="evenodd" clip-rule="evenodd" d="M39.2441 0.00941299C24.3144 -0.243287 11.789 15.9032 11.789 15.9032H13.6234C39.8771 -8.97383 65.0978 15.6665 47.8474 42.8967C38.6112 58.4107 26.2133 60.6821 26.2133 60.6821C38.3372 58.7102 45.6262 49.1938 45.6262 49.1938C59.4512 38.1363 66.7534 -0.693179 39.2441 0.00941299Z" fill="#29A4D8"/>
<path id="Vector_2" fill-rule="evenodd" clip-rule="evenodd" d="M3.69125 30.0296C3.69125 30.0296 7.48741 20.6958 9.89168 18.8042L10.3972 19.5608C10.3972 19.5608 5.21059 26.1193 3.69125 30.0296Z" fill="#29A4D8"/>
<path id="Vector_3" fill-rule="evenodd" clip-rule="evenodd" d="M22.6837 91.2892C22.6837 91.2892 22.7145 89.253 23.2537 89.0456C23.2537 89.0456 25.8367 87.132 26.3143 86.3243C26.3143 86.3243 28.0564 83.5709 28.745 83.1225C28.745 83.1225 29.4321 81.5683 29.7632 81.4777L31.0555 78.5169C31.0555 78.5169 34.1161 76.3288 34.5659 75.3136C34.5659 75.3136 35.2545 73.8222 35.615 73.7609C35.615 73.7609 36.1263 68.7347 35.7351 67.03C35.7351 67.03 35.4963 63.6807 35.2267 63.3506C35.2267 63.3506 34.5366 59.2533 33.4261 58.504C33.4261 58.504 38.0456 56.1114 40.2961 54.1059C40.2961 54.1059 44.6197 50.5169 45.5779 49.2607L46.6591 50.1854C46.6591 50.1854 47.4093 50.1854 47.2891 51.6212C47.2891 51.6212 49.1791 53.6574 49.418 54.0752L50.9183 55.66C50.9183 55.66 52.3863 56.3787 53.5276 58.8326C53.5276 58.8326 57.2183 65.5343 57.3092 66.491C57.3092 66.491 59.0776 64.8171 60.6394 65.7738C60.6394 65.7738 61.8437 66.7291 61.0613 67.9853L57.4894 72.5938C57.4894 72.5938 55.5085 73.4016 54.9679 73.4907C54.9679 73.4907 53.4104 74.0019 51.3402 76.6326L41.978 85.3661L40.4162 85.8145C40.4162 85.8145 39.7833 87.9121 39.9356 88.7476C39.9356 88.7476 39.7862 90.3908 39.3364 90.6917C39.3364 90.6917 37.5636 90.515 37.1446 89.6444L35.3762 87.3701C35.3762 87.3701 31.8027 90.6947 29.7632 94.0426C29.7632 94.0426 29.9713 95.2374 29.4937 95.5967C29.4937 95.5967 23.913 96.9727 22.9226 94.64C22.9226 94.64 22.7731 92.725 22.5035 92.725C22.5035 92.725 22.3819 91.2892 22.6837 91.2892Z" fill="#004A99"/>
<path id="Vector_4" fill-rule="evenodd" clip-rule="evenodd" d="M23.7943 93.7743V91.9484C23.7943 91.9484 24.3906 90.812 25.4426 91.1713C25.4426 91.1713 28.2366 91.5029 28.2952 92.5181L28.5941 93.5946C28.5941 93.5946 29.0131 94.2811 28.2337 94.5513C28.2337 94.5513 25.3561 95.1195 23.7943 93.7743Z" fill="white"/>
<path id="Vector_5" fill-rule="evenodd" clip-rule="evenodd" d="M38.1072 88.8369L37.1753 87.312C37.1753 87.312 36.9365 86.7715 37.6266 86.8022C37.6266 86.8022 38.8236 86.4429 39.1254 86.4429C39.1254 86.4429 39.3393 88.1475 39.0976 89.1349C39.0976 89.1349 38.4983 89.4373 38.1072 88.8369Z" fill="white"/>
<path id="Vector_6" fill-rule="evenodd" clip-rule="evenodd" d="M40.5964 69.6332C40.5964 69.6332 41.8564 68.6166 44.2871 68.9146C44.2871 68.9146 46.5068 69.4506 46.8071 70.0188C46.8071 70.0188 44.0761 68.7904 42.3663 69.3016L43.0579 69.3907C43.0579 69.3907 41.0462 69.4842 40.5964 69.6332Z" fill="white"/>
<path id="Vector_7" fill-rule="evenodd" clip-rule="evenodd" d="M54.3101 71.9353C54.3101 71.9353 55.6917 70.051 56.4711 70.051C56.4711 70.051 58.8988 69.2403 57.3986 66.6987C57.3986 66.6987 59.4688 64.9371 60.6394 66.0429C60.6394 66.0429 61.0614 66.7265 60.972 67.1472C60.972 67.1472 59.4409 68.8839 58.5106 69.512C58.5106 69.512 56.2631 71.427 55.7503 71.3963C55.7503 71.3963 55.1203 71.966 54.3101 71.9353Z" fill="white"/>
<path id="Vector_8" fill-rule="evenodd" clip-rule="evenodd" d="M17.3126 30.9802C17.3126 30.9802 15.5442 28.2575 15.6921 26.8523C15.6921 26.8523 15.1808 25.8649 16.8906 23.4737C16.8906 23.4737 19.1704 20.0046 23.283 21.9473C23.283 21.9473 24.5152 22.276 25.8338 24.968C25.8338 24.968 27.5743 25.8678 27.8146 25.8371C27.8146 25.8371 28.1428 26.5835 26.3744 27.3913L26.8828 28.6197C26.8828 28.6197 28.2337 28.3495 28.2644 28.1392L28.3846 28.7366V28.738L28.4241 28.9279L28.4446 28.9163L28.5941 29.6072C28.5941 29.6072 30.7537 27.5403 32.1045 26.1351C32.1045 26.1351 32.7345 23.8915 33.2151 22.9932C33.2151 22.9932 32.5822 19.5547 32.7345 19.4349C32.7345 19.4349 34.1132 18.2371 35.7952 18.5059C35.7952 18.5059 35.3454 16.8349 34.5659 16.9532V16.5939C34.5659 16.5939 32.1045 16.924 32.3155 18.9266C32.3155 18.9266 31.3837 19.375 30.2453 18.4782L29.4937 16.4142C29.4937 16.4142 28.7171 15.8723 27.9348 17.0701C27.9348 17.0701 19.4736 18.8375 13.1721 19.7942C13.1721 19.7942 4.13666 21.1702 1.22838 20.0937C1.22838 20.0937 0.0885072 18.0575 1.07894 16.9211L2.87958 16.9532C2.87958 16.9532 1.02033 17.3111 0.840119 17.8501C0.840119 17.8501 9.66167 18.5366 13.7714 17.1007C13.7714 17.1007 26.3773 14.8892 27.9348 14.4992C27.9348 14.4992 27.7267 13.9325 27.3048 14.0815C27.3048 14.0815 15.1193 16.1148 12.7502 16.0242C12.7502 16.0242 25.3254 13.839 27.1245 13.8711C27.1245 13.8711 27.6373 13.5732 28.5648 14.5299C28.5648 14.5299 28.9867 14.2918 29.1054 14.0815C29.1054 14.0815 29.0439 15.158 29.583 15.158C29.583 15.158 29.6167 15.7554 29.8263 15.7554L30.635 16.9211C30.635 16.9211 34.2671 15.7248 34.9571 15.4545C34.9571 15.4545 34.8971 14.7096 34.7769 14.6789L30.4255 16.0826L29.4351 14.2889L30.3933 15.6342C30.3933 15.6342 33.3953 14.7373 34.8355 14.4087L34.3857 12.6734C34.3857 12.6734 34.8048 13.7222 34.9264 12.3447L35.1359 13.2416C35.1359 13.2416 36.1556 13.1525 35.4348 14.229C35.4348 14.229 35.7073 16.0242 35.8567 16.3835L37.7746 17.3111L36.8164 17.9085L37.927 17.9406C37.927 17.9406 36.4281 18.9266 36.8472 19.6453C36.8472 19.6453 37.7746 20.5392 38.9452 19.8527C38.9452 19.8527 39.5196 20.3917 39.7276 20.3917C39.7276 20.3917 39.9356 20.9321 39.247 21.2608L37.927 26.9735C37.927 26.9735 37.5958 28.5014 37.086 28.8885L33.5448 35.5887C33.5448 35.5887 38.557 39.7195 39.0976 40.9144L42.7883 46.6271L42.7575 47.2859L43.7157 47.7343C43.7157 47.7343 39.0976 54.2578 32.8547 57.7868C32.8547 57.7868 32.1045 56.4678 32.7345 54.4944C32.7345 54.4944 31.8672 52.1018 32.0767 52.1018C32.0767 52.1018 31.7133 50.8456 31.1141 50.4863L24.8433 44.9225L20.3732 40.7624C20.3732 40.7624 19.7095 40.2556 19.7725 37.0245C19.7725 37.0245 18.3938 36.6345 18.8129 35.4996C18.8129 35.4996 17.8532 33.9425 18.092 33.6737C18.092 33.6737 19.2348 33.6737 19.3843 33.4035C19.3843 33.4035 20.3146 34.5151 21.0941 34.4523C21.0941 34.4523 19.2319 32.9551 18.9623 33.1347C18.9623 33.1347 17.6452 32.5373 17.4928 31.9983C17.4928 31.9983 18.725 33.1683 18.4832 32.3883L17.6115 31.8201C17.6115 31.8201 17.5221 31.0094 17.3126 30.9802Z" fill="#004A99"/>
<path id="Vector_9" fill-rule="evenodd" clip-rule="evenodd" d="M29.7134 11.7927L34.2143 11.3442V11.7693C34.2143 11.7693 33.3807 11.3442 33.0891 12.1067C33.0891 12.1067 32.3009 11.1865 31.873 12.1286C31.873 12.1286 30.8152 11.3209 30.5237 12.4427C30.5237 12.4427 29.8482 11.8146 29.7134 11.7927Z" fill="#004A99"/>
<path id="Vector_10" fill-rule="evenodd" clip-rule="evenodd" d="M35.0685 11.6351C35.0685 11.6351 35.3161 11.0523 36.1937 11.3663C36.1937 11.3663 39.2778 11.0304 39.773 12.0616C39.773 12.0616 40.2448 13.0943 40.2448 13.5647L41.7758 13.8568L41.5956 15.5848L40.8074 15.988C40.8074 15.988 40.6506 17.7612 40.6052 18.1644C40.6052 18.1644 40.11 15.4943 39.1196 16.1223C39.1196 16.1223 38.2639 16.0552 37.9489 15.6286L36.7563 15.0239L37.9489 15.1802C37.9489 15.1802 39.2998 15.4271 38.4896 14.3958C38.4896 14.3958 40.3576 14.6865 39.5254 13.924L39.9752 13.7663C39.9752 13.7663 39.6368 11.9053 39.2544 11.7695C39.2544 11.7695 38.7826 11.8601 38.872 12.2413C38.872 12.2413 38.242 11.0976 37.6339 11.9944C37.6339 11.9944 37.1387 11.3444 36.5321 11.6585C36.5321 11.6585 35.8113 11.2772 35.0685 11.6351Z" fill="#004A99"/>
<path id="Vector_11" fill-rule="evenodd" clip-rule="evenodd" d="M17.9103 30.4736C17.9103 30.4736 17.7755 31.5502 18.2473 31.9095C18.2473 31.9095 20.8582 34.1531 21.601 34.3547C21.601 34.3547 25.2462 34.6468 28.3743 32.4485C28.3743 32.4485 28.2629 30.5627 28.1721 30.5189L28.8021 30.0252V29.7331L28.1047 30.2487L27.7223 29.3066L28.4651 28.88L28.3523 28.5894C28.3523 28.5894 25.3136 30.2049 21.5336 30.9674L19.6201 31.4158C19.6201 31.4158 18.5858 31.6846 18.5184 30.0018L18.4056 30.0924C18.4056 30.0924 18.2927 31.7298 19.5982 31.7298C19.5982 31.7298 26.5517 29.9799 27.4527 29.4643C27.4527 29.4643 27.8351 29.755 27.9699 32.4032C27.9699 32.4032 22.524 35.1625 20.8582 33.5017L18.5184 31.797C18.5184 31.797 17.821 30.9002 17.9103 30.4736Z" fill="white"/>
<path id="Vector_12" fill-rule="evenodd" clip-rule="evenodd" d="M21.9717 34.0406L23.0295 30.9439L23.3885 30.7861L22.3541 34.0172L21.9717 34.0406Z" fill="white"/>
<path id="Vector_13" fill-rule="evenodd" clip-rule="evenodd" d="M25.8645 33.2546C25.8645 33.2546 25.6169 30.5173 25.1891 30.136L25.6389 30.0688C25.6389 30.0688 26.0448 32.3577 26.1795 33.1655L25.8645 33.2546Z" fill="white"/>
<path id="Vector_14" fill-rule="evenodd" clip-rule="evenodd" d="M19.563 31.864C19.563 31.864 19.6084 33.1874 23.5687 32.2905C23.5687 32.2905 27.3267 31.5938 28.723 29.9797L28.6776 29.7095C28.6776 29.7095 26.9224 31.4594 23.8837 31.7734C23.8837 31.7734 21.1161 32.6937 19.563 31.864Z" fill="white"/>
</g>
</svg>
