<svg width="10" height="10" viewBox="0 -1 10 12" fill="none" xmlns="http://www.w3.org/2000/svg">
<path id="Subtract" fill-rule="evenodd" clip-rule="evenodd" d="M5 10.8041C7.76142 10.8041 10 8.5655 10 5.80408C10 3.04265 7.76142 0.804077 5 0.804077C2.23858 0.804077 0 3.04265 0 5.80408C0 8.5655 2.23858 10.8041 5 10.8041ZM7.41035 4.67353C7.56261 4.46416 7.51632 4.171 7.30696 4.01873C7.09759 3.86646 6.80442 3.91275 6.65215 4.12212L4.47481 7.11597L3.30021 5.94137C3.11715 5.75831 2.82035 5.75831 2.63729 5.94137C2.45424 6.12443 2.45424 6.42122 2.63729 6.60428L4.19979 8.16678C4.29673 8.26372 4.43125 8.31336 4.56792 8.30264C4.70459 8.29192 4.82971 8.2219 4.91035 8.11103L7.41035 4.67353Z" fill="#1868FF"/>
</svg>
