<svg width="10" height="11" viewBox="0 0 10 11" fill="none" xmlns="http://www.w3.org/2000/svg">
<path id="Subtract" fill-rule="evenodd" clip-rule="evenodd" d="M0 5.80408C0 3.04265 2.23858 0.804077 5 0.804077C7.76142 0.804077 10 3.04265 10 5.80408C10 8.5655 7.76142 10.8041 5 10.8041C2.23858 10.8041 0 8.5655 0 5.80408ZM3.99413 3.9864C4.14463 3.90423 4.32799 3.9108 4.47223 4.00353L6.65973 5.40978C6.7939 5.49603 6.875 5.64458 6.875 5.80408C6.875 5.96358 6.7939 6.11213 6.65973 6.19838L4.47223 7.60463C4.32799 7.69735 4.14463 7.70392 3.99413 7.62175C3.84363 7.53959 3.75 7.3818 3.75 7.21033V4.39783C3.75 4.22636 3.84363 4.06857 3.99413 3.9864Z" fill="#F09807"/>
</svg>
