<svg width="24" height="24" viewBox="0 0 24 24" fill="none" xmlns="http://www.w3.org/2000/svg">
<g id="iconsTranStatus">
<path id="Subtract" fill-rule="evenodd" clip-rule="evenodd" d="M2.70001 4.7998C1.87159 4.7998 1.20001 5.47138 1.20001 6.29981V7.1998H22.8V6.2998C22.8 5.47138 22.1284 4.7998 21.3 4.7998H2.70001ZM22.8 10.1998H1.20001V17.6998C1.20001 18.5282 1.87159 19.1998 2.70001 19.1998H21.3C22.1284 19.1998 22.8 18.5282 22.8 17.6998V10.1998ZM3.75001 15.8998C3.75001 15.4856 4.0858 15.1498 4.50001 15.1498H6.30001C6.71423 15.1498 7.05001 15.4856 7.05001 15.8998C7.05001 16.314 6.71423 16.6498 6.30001 16.6498H4.50001C4.0858 16.6498 3.75001 16.314 3.75001 15.8998ZM9.30001 15.1498C8.8858 15.1498 8.55001 15.4856 8.55001 15.8998C8.55001 16.314 8.8858 16.6498 9.30001 16.6498H13.5C13.9142 16.6498 14.25 16.314 14.25 15.8998C14.25 15.4856 13.9142 15.1498 13.5 15.1498H9.30001Z" fill="#4578EE"/>
</g>
</svg>
